<svg xmlns="http://www.w3.org/2000/svg" width="400" height="400" fill="none" id="lottiefiles"><path fill="#00DDB3" d="M400 0H0v400h400V0Z"></path><path fill="#fff" d="M284.731 105c-56.692 0-77.692 40.465-94.538 72.98l-11.035 20.798c-17.9 34.483-31.259 55.421-65.68 55.421a16.306 16.306 0 0 0-16.289 16.288 16.287 16.287 0 0 0 16.289 16.273c56.692 0 77.691-40.465 94.538-72.98l11.019-20.798c17.915-34.483 31.259-55.421 65.68-55.421a16.288 16.288 0 0 0 15.048-22.519A16.27 16.27 0 0 0 284.715 105h.016Z"></path></svg>